HIERARCHY
ROOT Hips
{
	OFFSET 0.000000 0.000000 0.000000 
	CHANNELS 6 Xposition Yposition Zposition Yrotation Zrotation Xrotation 
	JOINT Lumbar
	{
		OFFSET 0.000000 0.000000 0.000000 
		CHANNELS 3 Zrotation Xrotation Yrotation
		JOINT Neck
		{
			OFFSET 0.000000 0.445665 0.000000 
			CHANNELS 3 Zrotation Xrotation Yrotation
			End Site
			{
				OFFSET 0.000000 0.227535 0.000000 
			}
		}
		JOINT RightShoulder
		{
			OFFSET 0.019635 0.377685 0.194865 
			CHANNELS 3 Zrotation Xrotation Yrotation
			JOINT RightElbow
			{
				OFFSET 0.000000 -0.243375 0.000000 
				CHANNELS 2 Zrotation Yrotation
				JOINT RightWrist
				{
					OFFSET 0.000000 -0.264825 0.000000 
					CHANNELS 2 Zrotation Xrotation
					End Site
					{
						OFFSET 0.006600 -0.176220 0.000990 
					}
				}
			}
		}
		JOINT LeftShoulder
		{
			OFFSET 0.019635 0.377685 -0.194865 
			CHANNELS 3 Zrotation Xrotation Yrotation
			JOINT LeftElbow
			{
				OFFSET 0.000000 -0.243375 0.000000 
				CHANNELS 2 Zrotation Yrotation
				JOINT LeftWrist
				{
					OFFSET 0.000000 -0.264825 0.000000 
					CHANNELS 2 Zrotation Xrotation
					End Site
					{
						OFFSET 0.006600 -0.176220 -0.000990 
					}
				}
			}
		}
	}
	JOINT RightHip
	{
		OFFSET 0.052140 -0.069960 0.075570 
		CHANNELS 3 Zrotation Xrotation Yrotation
		JOINT RightKnee
		{
			OFFSET 0.000000 -0.402270 0.000000 
			CHANNELS 1 Zrotation
			JOINT RightAnkle
			{
				OFFSET 0.000000 -0.404085 0.000000 
				CHANNELS 3 Zrotation Xrotation Yrotation
				End Site
				{
					OFFSET 0.204105 -0.089430 0.008415 
				}
			}
		}
	}
	JOINT LeftHip
	{
		OFFSET 0.052140 -0.069960 -0.075570 
		CHANNELS 3 Zrotation Xrotation Yrotation
		JOINT LeftKnee
		{
			OFFSET 0.000000 -0.402270 0.000000 
			CHANNELS 1 Zrotation
			JOINT LeftAnkle
			{
				OFFSET 0.000000 -0.404085 0.000000 
				CHANNELS 3 Zrotation Xrotation Yrotation
				End Site
				{
					OFFSET 0.204105 -0.089430 -0.008415 
				}
			}
		}
	}
}
MOTION
Frames: 33
Frame Time: 0.02
-0.07583 0.00114 -0.43302 -14.20458 -22.49169 -0.26201 42.99542 0.04756 3.54486 3.2498 17.52342 -0.83079 93.1909 -57.26103 0.7806 31.78044 63.0044 27.38716 -5.97246 -33.71595 12.82493 15.87043 40.16436 -105.45453 21.77819 -0.0637 47.09714 -10.3245 -7.54282 -24.72179 -10.61816 -3.6248 -2.73387 36.03869 1.79269 4.9875 -24.41278 -6.63555 2.68537 2.00825
-0.08244 0.00143 -0.42838 -15.39869 -23.40961 -1.0786 42.79538 -0.11131 1.84828 2.97777 18.4964 -0.83079 86.21368 -56.22154 -3.53002 37.72553 63.49616 26.55884 -5.87961 -34.87998 13.50616 14.19126 41.48373 -104.9298 21.13018 -0.06437 48.31066 -9.51783 -7.95394 -24.68203 -10.52546 -3.30715 -2.5518 37.39865 2.76714 3.76761 -24.4976 -6.6702 2.89561 2.12777
-0.08895 0.00136 -0.42373 -16.59573 -24.35095 -1.86849 42.76633 -0.24711 0.13623 2.44812 19.29049 -0.83079 78.56784 -54.59138 -8.93406 44.37671 65.0278 25.25232 -5.8114 -35.84886 14.32565 12.61688 42.47297 -105.06079 20.62063 -0.16452 49.4944 -8.77753 -8.24901 -24.72131 -10.36278 -2.98483 -2.36453 38.76824 3.73357 2.59464 -24.60396 -6.71386 3.09868 2.24572
-0.09543 0.00146 -0.41906 -17.77618 -25.26181 -2.65808 42.66422 -0.39432 -1.55168 2.02069 20.14296 -0.83079 71.26134 -53.22434 -13.78301 50.69361 66.09094 24.15947 -5.72315 -36.88244 15.08457 11.0133 43.6047 -104.89587 20.05766 -0.21855 50.65133 -8.01958 -8.59713 -24.73567 -10.23188 -2.67953 -2.18797 40.10626 4.69653 1.42408 -24.70075 -6.75303 3.3012 2.36214
-0.10228 0.00153 -0.41446 -19.02401 -26.25943 -3.50761 42.53803 -0.53895 -3.32389 1.65665 21.10168 -0.83079 63.76454 -51.88169 -18.90469 57.10328 67.12595 23.07919 -5.66366 -38.02876 15.84371 9.29685 44.78149 -104.7082 19.44746 -0.27494 51.98363 -7.20381 -8.94925 -24.70619 -10.10034 -2.30986 -1.9753 41.56526 5.69559 0.14027 -24.79779 -6.79357 3.52113 2.48871
-0.1083 0.00157 -0.40972 -20.13131 -27.08001 -4.22204 42.50481 -0.68342 -4.91836 1.09891 21.7922 -0.83079 56.5257 -50.34826 -23.70497 63.46575 68.46441 21.86675 -5.55429 -38.88926 16.62837 7.86043 45.78248 -104.72749 18.97098 -0.35036 52.93979 -6.52676 -9.26238 -24.78529 -9.95448 -2.0734 -1.83678 42.77082 6.61428 -0.89341 -24.89925 -6.83361 3.70291 2.59368
-0.11206 0.00162 -0.40463 -20.84678 -27.41477 -4.58245 42.68076 -0.82737 -6.03247 0.07225 21.79461 -0.83079 50.10619 -48.41945 -27.38092 69.61846 70.46664 20.32482 -5.29003 -39.01058 17.48796 7.09034 46.35875 -105.17743 18.83356 -0.45719 52.88649 -6.20979 -9.51053 -25.15034 -9.77768 -2.20976 -1.9062 43.29041 7.32485 -1.22187 -25.00419 -6.86867 3.77672 2.63694
-0.11497 0.00164 -0.39938 -21.42102 -27.56849 -4.80434 42.94605 -0.97275 -6.96273 -1.14073 21.53013 -0.83079 43.98675 -46.32122 -30.68568 75.67651 72.72731 18.68014 -4.97764 -38.84881 18.36039 6.61715 46.77054 -105.81197 18.82644 -0.57946 52.45087 -6.03232 -9.72106 -25.62004 -9.59036 -2.47971 -2.05012 43.55062 7.95213 -1.3015 -25.11328 -6.90313 3.81281 2.65876
-0.11823 0.00165 -0.39416 -22.06121 -27.79915 -5.08091 43.17467 -1.12096 -7.96662 -2.27075 21.38133 -0.83079 37.76973 -44.30842 -34.13787 81.71462 74.81789 17.13633 -4.69601 -38.81369 19.20102 6.06576 47.26934 -106.35089 18.75816 -0.69275 52.17593 -5.79562 -9.93781 -26.03866 -9.41357 -2.68645 -2.15894 43.91866 8.60875 -1.51169 -25.22254 -6.93886 3.86894 2.69196
-0.12164 0.00174 -0.38912 -22.69333 -28.05362 -5.39268 43.39236 -1.25374 -9.01418 -3.4038 21.25146 -0.83079 31.35752 -42.23861 -37.72185 88.04967 77.16115 15.3505 -4.37862 -38.78096 20.15643 5.27963 47.70741 -106.96036 18.70227 -0.81752 51.95647 -5.54225 -10.19304 -26.47726 -9.21049 -2.90422 -2.27319 44.33077 9.30016 -1.65245 -25.32389 -6.97093 3.91314 2.7185
-0.12454 0.00166 -0.38366 -23.30963 -28.21467 -5.5972 43.65212 -1.41923 -9.92559 -4.56983 21.01942 -0.83079 25.44134 -40.25603 -40.92453 93.72692 79.0329 14.04646 -4.12267 -38.67783 20.87369 5.04965 48.23432 -107.46017 18.65036 -0.92108 51.52939 -5.35752 -10.36501 -26.89517 -9.06007 -3.12993 -2.3934 44.58783 9.9006 -1.87214 -25.44244 -7.01007 3.97264 2.75348
-0.12624 0.00113 -0.37722 -23.90872 -28.16611 -5.55059 44.00282 -1.67517 -10.51586 -5.7932 20.58488 -0.83079 20.75012 -38.55125 -43.19314 97.66829 79.47397 14.13593 -4.05944 -38.4554 20.9307 6.30272 49.07093 -107.59955 18.57412 -0.96022 50.63706 -5.31382 -10.2773 -27.2549 -9.06251 -3.35283 -2.51639 44.49228 10.25934 -2.43294 -25.60707 -7.07165 4.08947 2.82032
-0.12748 0.00042 -0.37034 -24.49857 -28.02893 -5.39862 44.39253 -1.96384 -10.97318 -7.03933 20.05486 -0.83079 16.567 -36.94498 -45.0786 100.93525 79.43739 14.70927 -4.05736 -38.17147 20.74613 8.10194 49.99894 -107.62582 18.49879 -0.97811 49.54696 -5.33638 -10.11344 -27.58548 -9.11782 -3.57776 -2.64205 44.24712 10.53116 -3.07133 -25.78884 -7.13997 4.22205 2.89588
-0.12893 -0.00022 -0.36359 -25.0975 -27.92948 -5.28805 44.76576 -2.2375 -11.48525 -8.26657 19.56012 -0.83079 12.19846 -35.29818 -47.11728 104.47143 79.65879 15.0384 -4.01994 -37.91317 20.67191 9.63646 50.8719 -107.70302 18.42281 -1.00571 48.53732 -5.33818 -10.01248 -27.91249 -9.14603 -3.79642 -2.76346 44.06277 10.85035 -3.63227 -25.9629 -7.20314 4.34344 2.96519
-0.13033 -0.0008 -0.35714 -25.66953 -27.8343 -5.20107 45.13701 -2.51241 -12.01624 -9.53856 19.09049 -0.83079 7.63785 -33.62276 -49.23777 108.16763 79.72225 15.46568 -4.01328 -37.65581 20.59846 11.24748 51.79924 -107.77041 18.3466 -1.03078 47.55182 -5.30694 -9.79686 -28.313 -9.18661 -4.04186 -2.90001 43.90056 11.13471 -4.35849 -26.13676 -7.27443 4.47999 3.04308
-0.13175 -0.00156 -0.34995 -26.29897 -27.71174 -5.04042 45.52037 -2.79169 -12.47693 -10.71778 18.54904 -0.83079 3.60671 -32.03818 -51.09428 111.3646 79.99134 15.80558 -3.95701 -37.38416 20.46259 12.82949 52.63308 -107.8523 18.27675 -1.05952 46.47689 -5.35652 -9.79471 -28.55364 -9.21438 -4.23085 -3.00502 43.65899 11.47041 -4.76734 -26.31509 -7.33126 4.58987 3.10587
-0.1333 -0.00271 -0.34092 -27.07536 -27.53416 -4.71404 45.92722 -3.08158 -12.79116 -11.65472 17.83709 -0.83079 0.80774 -30.63501 -52.37637 113.40533 80.99731 15.78027 -3.75586 -37.10258 20.24286 14.15477 53.22301 -107.78315 18.15509 -1.06944 45.18143 -5.628 -10.46843 -28.3464 -9.19119 -4.25761 -3.01886 43.24516 11.984 -4.23678 -26.50125 -7.33932 4.61668 3.12125
-0.13491 -0.00406 -0.33113 -27.91327 -27.33309 -4.31569 46.34401 -3.37332 -13.03717 -12.49255 17.05679 -0.83079 -1.45665 -29.32942 -53.39552 114.95644 82.21552 15.65156 -3.50241 -36.80791 19.96439 15.43645 53.70983 -107.7608 18.04839 -1.08829 43.80923 -5.9745 -11.34772 -27.98146 -9.15346 -4.2278 -3.00103 42.75582 12.55017 -3.3934 -26.69135 -7.33407 4.61729 3.12189
-0.13655 -0.00537 -0.32161 -28.7327 -27.14452 -3.94305 46.75668 -3.66019 -13.30559 -13.36249 16.30613 -0.83079 -3.89922 -28.00958 -54.4981 116.69474 83.30093 15.5749 -3.26748 -36.51066 19.69184 16.76748 54.22057 -107.87415 17.98414 -1.12761 42.48799 -6.27683 -12.08791 -27.69683 -9.12469 -4.22721 -2.99965 42.29587 13.08258 -2.72369 -26.87984 -7.33948 4.63381 3.13176
-0.13791 -0.00647 -0.31239 -29.51129 -26.94548 -3.59589 47.17119 -3.96605 -13.60614 -14.28943 15.55757 -0.83079 -6.60129 -26.56527 -55.74303 118.55925 84.52338 15.49527 -3.05347 -36.2454 19.49324 18.0017 54.8308 -107.3684 17.72709 -1.06998 41.09004 -6.62627 -13.01589 -27.374 -9.08944 -4.21242 -2.99005 41.85212 13.65243 -1.92449 -27.06817 -7.32515 4.63417 3.13133
-0.1399 -0.00806 -0.30237 -30.39021 -26.76331 -3.18033 47.58109 -4.23131 -13.82459 -15.0719 14.79017 -0.83079 -8.63758 -25.40305 -56.62946 120.05256 85.51689 15.38901 -2.78686 -35.91339 19.13649 19.4092 55.20871 -108.10523 17.85632 -1.20749 39.83838 -6.89178 -13.60552 -27.09459 -9.06151 -4.21312 -2.98958 41.35771 14.15935 -1.31852 -27.25754 -7.34931 4.66147 3.14861
-0.14336 -0.01086 -0.29046 -31.52625 -26.63879 -2.5914 47.99739 -4.39279 -13.83999 -15.49496 13.98482 -0.83079 -9.01053 -24.98757 -56.63152 120.65028 85.82975 15.24983 -2.35076 -35.38098 18.30012 21.39751 54.96715 -112.783 19.21295 -1.96217 38.99318 -6.92991 -13.18613 -26.96594 -9.07487 -4.27534 -3.02575 40.75258 14.46779 -1.33532 -27.45004 -7.47803 4.77208 3.2195
-0.14749 -0.01416 -0.27775 -32.76166 -26.5316 -1.93742 48.40401 -4.51146 -13.77444 -15.77293 13.16429 -0.83079 -8.72607 -24.85333 -56.27625 120.89277 85.90728 15.08259 -1.86943 -34.78488 17.31773 23.54298 54.49706 -118.62025 20.92935 -2.89916 38.30214 -6.87621 -12.42467 -26.88825 -9.09282 -4.3541 -3.07149 40.09888 14.7136 -1.55612 -27.644 -7.64717 4.91012 3.30848
-0.15146 -0.01729 -0.26533 -33.95541 -26.41342 -1.31471 48.80132 -4.64394 -13.74217 -16.10733 12.35246 -0.83079 -8.7163 -24.59576 -56.05933 121.29518 86.09178 14.91514 -1.43369 -34.23206 16.44196 25.55209 54.13124 -123.5761 22.37027 -3.69855 37.55195 -6.84952 -11.83551 -26.79209 -9.09658 -4.4221 -3.11044 39.45989 14.99654 -1.67299 -27.83531 -7.80064 5.03392 3.38841
-0.15481 -0.02018 -0.25316 -35.13838 -26.30731 -0.68075 49.25881 -4.80073 -13.72253 -16.47896 11.52888 -0.83079 -8.78979 -24.32421 -55.93396 121.6871 86.28052 14.79727 -0.8934 -33.62195 15.39727 27.82937 53.75371 -129.99987 24.27509 -4.72467 36.75203 -6.88837 -11.17998 -26.66956 -9.14992 -4.50204 -3.15864 38.84506 15.24532 -1.82037 -28.0316 -7.94091 5.16444 3.47134
-0.15962 -0.02368 -0.24032 -36.36424 -26.18075 -0.05753 49.58611 -4.8962 -13.6579 -16.73919 10.72921 -0.83079 -8.54002 -24.14542 -55.53717 122.0222 86.4053 14.57307 -0.55716 -33.11156 14.66644 29.59196 53.35568 -133.67875 25.31071 -5.32763 36.09439 -6.76702 -10.58178 -26.61742 -9.10259 -4.56151 -3.19018 38.17463 15.54887 -1.96424 -28.22227 -8.1201 5.28763 3.55249
-0.16816 -0.02876 -0.22566 -37.70306 -25.99143 0.5355 49.57589 -4.83692 -13.49191 -16.73303 9.98147 -0.83079 -7.5676 -24.17032 -54.47447 122.29739 86.38018 14.04191 -0.82695 -32.93179 14.8748 29.8382 52.88934 -129.1661 23.75584 -4.6662 35.78356 -6.23362 -10.19866 -26.73609 -8.76496 -4.56286 -3.17438 37.32058 16.02496 -1.98228 -28.36107 -8.38127 5.38547 3.62422
-0.17816 -0.03443 -0.21039 -39.077 -25.78141 1.11254 49.43083 -4.71663 -13.28288 -16.61897 9.26205 -0.83079 -6.29361 -24.27588 -53.15313 122.52857 86.30294 13.40888 -1.29804 -32.8469 15.39812 29.56922 52.42403 -121.91072 21.33241 -3.58192 35.61237 -5.54095 -9.88883 -26.926 -8.32815 -4.54289 -3.14148 36.42214 16.55611 -2.00152 -28.50241 -8.68216 5.47469 3.69347
-0.1876 -0.03982 -0.19549 -40.42322 -25.5824 1.68599 49.33512 -4.62158 -13.09236 -16.55135 8.5416 -0.83079 -5.15445 -24.33253 -51.95399 122.77551 86.26961 12.83633 -1.65656 -32.69309 15.75265 29.57669 52.0023 -116.12783 19.37417 -2.72512 35.3834 -4.91485 -9.5623 -27.09229 -7.94403 -4.53133 -3.11591 35.56982 17.05892 -2.06793 -28.66419 -8.97645 5.56713 3.76416
-0.19667 -0.0453 -0.18011 -41.82585 -25.37736 2.30622 49.29119 -4.53551 -12.90483 -16.49051 7.77033 -0.83079 -4.00136 -24.4484 -50.72216 123.02659 86.14543 12.20322 -2.10245 -32.64741 16.20784 29.42153 51.38397 -109.43676 17.13271 -1.72655 35.13658 -4.3075 -9.1547 -27.22628 -7.52741 -4.52562 -3.09243 34.59941 17.57704 -1.94866 -28.72846 -9.22798 5.66401 3.83475
-0.20681 -0.0507 -0.16565 -43.11393 -25.17955 2.82608 49.1053 -4.41685 -12.7001 -16.39061 7.11214 -0.83079 -2.81434 -24.45937 -49.50215 123.26459 86.19786 11.672 -2.4148 -32.39806 16.53323 29.46753 51.18163 -103.9638 15.26808 -0.91929 34.95711 -3.62776 -8.93676 -27.44009 -7.1555 -4.50258 -3.06053 33.8736 18.0728 -2.20269 -29.00442 -9.57221 5.74852 3.90396
-0.21972 -0.05588 -0.15359 -44.11146 -25.00874 3.05781 48.57977 -4.22273 -12.47409 -16.22074 6.75703 -0.83079 -1.61061 -24.13425 -48.37462 123.46805 86.78103 11.45154 -2.30975 -31.57973 16.39579 30.30803 52.10282 -102.58079 14.67329 -0.75304 34.93809 -2.75938 -9.23348 -27.88919 -6.9261 -4.43595 -3.00862 33.76027 18.52982 -3.57937 -29.79206 -10.20773 5.80706 3.97628
-0.23362 -0.06092 -0.14254 -44.98571 -24.8458 3.19167 47.91287 -3.99807 -12.22948 -16.01404 6.51526 -0.83079 -0.38589 -23.70439 -47.2693 123.66311 87.54016 11.33682 -2.06389 -30.55107 16.12194 31.34755 53.44942 -102.50227 14.48285 -0.79126 34.98015 -1.82958 -9.71758 -28.41005 -6.74618 -4.35281 -2.94902 33.90769 18.95522 -5.31162 -30.80338 -10.9265 5.85211 4.04597
